<svg width="36" height="36" viewBox="0 0 36 36" fill="none" xmlns="http://www.w3.org/2000/svg">
<circle cx="18" cy="18" r="18" fill="#191919"/>
<path d="M24.7442 19.5431C26.1373 18.9525 27.0762 17.7397 26.9951 16.1648C26.9726 15.7274 26.8757 15.2947 26.7144 14.8888C26.5655 14.5141 26.3255 14.2004 26.1547 13.8401C25.8033 13.0989 25.642 12.2764 25.3506 11.5112C24.097 8.21941 19.9864 7.221 17.0159 8.60556C15.6829 9.22686 14.6538 10.3387 13.996 11.6583C15.0152 11.3019 16.1691 11.5095 17.007 12.1975C16.9741 12.2433 16.942 12.2894 16.9114 12.3361C15.5129 11.293 13.4717 11.7788 12.6611 13.3316C11.8776 14.8326 12.5627 16.755 14.106 17.4054C15.0409 17.7994 16.1363 17.6579 16.9437 17.0381C16.9785 17.081 17.0146 17.1229 17.0515 17.1639C16.1114 17.9646 14.7574 18.1395 13.6516 17.5969C14.0522 18.2483 14.6138 18.7838 15.2541 19.1875C14.78 20.0602 14.4583 21.0433 14.4356 22.0461C14.4149 22.9576 14.4634 23.9421 14.788 24.8019C13.9639 24.7816 13.0195 24.6235 12.4404 23.9672C11.8933 23.3472 11.7883 22.4403 11.7896 21.6416C11.7911 20.6568 12.0055 19.7138 12.1355 18.7445C12.2649 17.7794 12.1813 16.7691 11.7754 15.878C10.9586 14.0851 8.75865 13.0314 6.92657 13.875C5.1356 14.6996 4.26925 17.1666 5.76216 18.7066C6.3699 19.3335 7.29497 19.6654 8.14216 19.4078C8.93597 19.1664 9.56928 18.4385 9.64995 17.5905C9.73048 16.744 9.15839 15.8568 8.31647 15.6828C7.88968 15.5946 7.47833 15.9205 7.50771 16.3764C7.52052 16.5751 7.6244 16.7626 7.78542 16.8768C7.96415 17.0036 8.1914 16.9956 8.29969 17.2174C8.5066 17.6412 8.04089 18.0936 7.65937 18.1548C7.19975 18.2286 6.72978 17.8973 6.49859 17.5144C5.96207 16.626 6.58532 15.5195 7.42374 15.1102C8.22895 14.717 9.19643 14.9497 9.86996 15.5068C10.4531 15.9892 10.7721 16.711 10.8563 17.4602C10.9617 18.3979 10.6808 19.3232 10.5693 20.2478C10.4579 21.1711 10.4143 22.1262 10.6035 23.0424C10.7785 23.8892 11.1773 24.678 11.8482 25.2268C12.5182 25.7749 13.3657 26.0221 14.2104 26.1044C14.7401 26.156 15.2743 26.1459 15.804 26.1017C16.0502 26.2562 16.3383 26.3751 16.6737 26.4567C16.7937 26.8519 17.1543 27.1275 17.5683 27.1275H25.9678C27.0058 27.1275 27.0125 25.8497 26.8832 25.1003C26.7491 24.3222 26.355 23.6025 25.7009 23.1578C25.696 21.7726 25.3062 20.6419 24.7442 19.5431ZM16.3702 15.8381C16.1243 16.0985 15.7794 16.2616 15.3971 16.2616C14.6528 16.2616 14.0472 15.6461 14.0472 14.8896C14.0472 14.1331 14.6528 13.5176 15.3971 13.5176C15.7655 13.5176 16.0995 13.6687 16.3433 13.9126C16.3006 14.2166 16.2795 14.5536 16.2795 14.9356C16.2795 15.2728 16.3111 15.571 16.3702 15.8381ZM19.4726 15.9318C19.6063 15.2351 20.084 14.6283 20.3823 13.9956C20.6436 13.4413 20.8104 12.8322 21.1585 12.3247C21.7888 11.4056 22.8609 10.8551 23.9635 10.9048C24.5147 11.6729 24.7096 12.603 25.0118 13.4861C25.1447 13.8742 25.2889 14.259 25.5067 14.6068C25.7639 15.0175 25.9586 15.4471 26.0306 15.9326L25.8017 15.858C25.4608 15.7183 25.2429 16.2508 25.4674 16.479L25.9082 16.927C25.9327 16.9519 25.9603 16.9714 25.9889 16.9883C25.6015 18.5303 23.7975 18.9809 22.4436 19.1182C20.87 19.0148 19.1315 17.7097 19.4726 15.9318ZM23.9793 26.0326H17.6918H17.6909H17.6892C17.6677 25.8128 17.6411 25.6113 17.7776 25.4277C17.9283 25.2248 18.1799 25.0926 18.4 24.9856C19.0721 24.6589 19.8256 24.4845 20.5569 24.3619C21.3084 24.2358 22.1762 24.104 22.9163 24.3481C23.6215 24.5806 24.0928 25.2647 23.9793 26.0326ZM24.2671 25.7357C24.1982 24.7025 23.4421 24.0695 22.4627 23.9607C23.0952 23.9133 23.7898 23.9132 24.3105 24.3378C24.7855 24.725 24.9986 25.4293 24.9138 26.0326H24.2622C24.2738 25.9337 24.2738 25.8349 24.2671 25.7357ZM25.0897 25.0209C24.8871 24.3787 24.3882 23.9243 23.7519 23.7501C24.3726 23.7329 25.0098 23.8576 25.4246 24.3677C25.7815 24.8066 25.9246 25.4726 25.8493 26.0326H25.1966C25.2356 25.6981 25.1907 25.3407 25.0897 25.0209ZM24.96 23.0415C24.96 23.2425 24.9436 23.4463 24.9061 23.6439C24.5454 23.4943 24.156 23.4519 23.7693 23.465C23.4627 22.3678 23.623 21.1432 24.2352 20.1832C24.6426 21.0669 24.96 22.0562 24.96 23.0415ZM22.9079 14.8475C22.8896 14.2431 23.2172 13.7424 23.6397 13.7292C24.0621 13.716 24.4195 14.1952 24.4378 14.7996C24.4561 15.404 24.1285 15.9047 23.706 15.9179C23.2836 15.9312 22.9262 15.4519 22.9079 14.8475Z" fill="#753F8C"/>
</svg>
